<svg width="32" height="32" viewBox="0 0 32 32" fill="none" xmlns="http://www.w3.org/2000/svg">
<path d="M30.7125 9.71262L26.9375 13.4751C26.1875 22.2126 18.8125 29.0001 10 29.0001C8.18753 29.0001 6.68753 28.7126 5.55003 28.1501C4.63753 27.6876 4.26253 27.2001 4.16253 27.0501C4.07979 26.9244 4.02648 26.7817 4.00656 26.6326C3.98664 26.4835 4.00063 26.3318 4.04749 26.1888C4.09434 26.0458 4.17286 25.9152 4.27719 25.8068C4.38151 25.6984 4.50896 25.6149 4.65003 25.5626C4.67503 25.5501 7.62503 24.4251 9.53753 22.2626C8.35145 21.4181 7.30897 20.3883 6.45003 19.2126C4.73753 16.8876 2.92503 12.8501 4.01253 6.82512C4.04671 6.646 4.12864 6.47944 4.24965 6.34303C4.37066 6.20662 4.52626 6.10542 4.70003 6.05012C4.87434 5.99304 5.061 5.985 5.23958 6.02689C5.41816 6.06878 5.58177 6.15898 5.71253 6.28762C5.75003 6.33762 9.91253 10.4376 15 11.7626V11.0001C15.0049 10.2073 15.166 9.42313 15.4739 8.6925C15.7819 7.96188 16.2307 7.29906 16.7949 6.74191C17.359 6.18475 18.0273 5.74417 18.7617 5.44531C19.4961 5.14645 20.2822 4.99518 21.075 5.00012C22.1156 5.01496 23.1347 5.29909 24.0328 5.82484C24.931 6.35059 25.6776 7.10002 26.2 8.00012H30C30.1975 7.9995 30.3906 8.05733 30.5553 8.16633C30.7199 8.27533 30.8485 8.43062 30.925 8.61262C30.9971 8.79733 31.0154 8.99866 30.9777 9.19333C30.9401 9.38799 30.8482 9.56803 30.7125 9.71262Z" fill="#1DA1F2"/>
</svg>
